<svg id="Ebene_1" data-name="Ebene 1" xmlns="http://www.w3.org/2000/svg" viewBox="0 0 246.54 53.16"><defs><style>.cls-1{fill:#fff;}</style></defs><title>Hello2</title><path class="cls-1" d="M210,303.77H199.1V281.59H178.74v22.18h-10.9v-51.4h10.9v20.15H199.1V252.37H210Z" transform="translate(-167.84 -251.56)"/><path class="cls-1" d="M253,303.77h-29.6v-51.4H253v8.93H234.33v11.29h17.41v8.93H234.33v13.25H253Z" transform="translate(-167.84 -251.56)"/><path class="cls-1" d="M264.26,303.77v-51.4h10.9v42.4H296v9Z" transform="translate(-167.84 -251.56)"/><path class="cls-1" d="M305.44,303.77v-51.4h10.9v42.4h20.85v9Z" transform="translate(-167.84 -251.56)"/><path class="cls-1" d="M393.28,278q0,12.76-6.33,19.62t-18.14,6.85q-11.82,0-18.14-6.85t-6.33-19.69q0-12.82,6.34-19.6t18.2-6.77q11.85,0,18.12,6.82T393.28,278Zm-37.52,0q0,8.61,3.27,13t9.78,4.36q13,0,13-17.33t-13-17.37q-6.51,0-9.81,4.38T355.76,278Z" transform="translate(-167.84 -251.56)"/><path class="cls-1" d="M402.08,298.74a5.88,5.88,0,0,1,1.58-4.46,6.39,6.39,0,0,1,4.6-1.51,6.22,6.22,0,0,1,4.52,1.54,6.83,6.83,0,0,1,0,8.81,6.08,6.08,0,0,1-4.5,1.6,6.33,6.33,0,0,1-4.57-1.56A5.91,5.91,0,0,1,402.08,298.74Z" transform="translate(-167.84 -251.56)"/></svg>