<svg id="Figure" xmlns="http://www.w3.org/2000/svg" viewBox="0 0 158.87 127.98"><defs><style>.cls-1{fill:#7ac29d;}.cls-2{fill:#f4e7d4;}.cls-3{fill:#bedec2;}.cls-11,.cls-12,.cls-4,.cls-5,.cls-6{fill:none;}.cls-4,.cls-5,.cls-6,.cls-8,.cls-9{stroke:#5b6275;}.cls-11,.cls-4,.cls-5,.cls-6,.cls-8,.cls-9{stroke-linecap:round;}.cls-11,.cls-12,.cls-4,.cls-5,.cls-6,.cls-8,.cls-9{stroke-miterlimit:10;}.cls-4,.cls-8{stroke-width:0.5px;}.cls-6{stroke-width:2px;}.cls-7{fill:#fdf6ec;}.cls-8,.cls-9{fill:#5b6275;}.cls-10{fill:#f5a470;}.cls-11{stroke:#f5a470;}.cls-12{stroke:#7ac29d;}</style></defs><title>Monster-illustration</title><path class="cls-1" d="M268.66,314.12a51.3,51.3,0,0,0,1.82,22.09s-1.32,9.2-7.89,6.31c0,0-1.84-4.74,5.52-6.58,0,0-4.67-18.14-1.68-21.82S268.66,314.12,268.66,314.12Z" transform="translate(-211.56 -215.1)"/><path class="cls-1" d="M301.62,310.88s6.75,16.57,2,26.11c0,0,5.16.6,8.14-3.18,0,0,2.19-4.57-5.06-2.78,0,0,3-13.12-1.44-20.87S301.62,310.88,301.62,310.88Z" transform="translate(-211.56 -215.1)"/><path class="cls-2" d="M293.09,229s7.89-4,2.63-8c0,0-1.84-3.42,2.63-3.68s-11-2.21-8.15,4.73,0,1.06-1.84,4.21a3.91,3.91,0,0,0,.7,4.69h6.61Z" transform="translate(-211.56 -215.1)"/><path class="cls-2" d="M307.14,231.28c1.71-.67,3.61-2.07,1.46-4.71-3.42-4.2,3.16-5.78,3.16-5.78s-9.21-4.09-7.1,3.68c0,0,.15,2.1-4.66,2.1-4.12,0-.27,3.28.91,4.22C303,230.48,305.07,231.3,307.14,231.28Z" transform="translate(-211.56 -215.1)"/><path class="cls-2" d="M280.23,231.28c-.59.55-1.08,1.29-2.23.72,1.85.93,2-1.57,3.59-1.15,1.13-1.34,3.29-4.28-3.49-4.28-9.72,0,13.94-5,1.58-6,0,0-2.63-2.9.26-4.74,0,0-8.52-3.15-4.92,5,0,0,2.44.52,0,2.37s-4.13,5.46,0,5.88,2.82,3.32,2.82,3.32" transform="translate(-211.56 -215.1)"/><path class="cls-3" d="M277.84,232.36c-1.08,1-2.75,1.06-4.1,1.44q-2.46.67-4.84,1.57a55.85,55.85,0,0,0-9.27,4.5c-5.08-5.33-11-11-18.34-11.14-7.85-.1-14.18,6.25-18.76,12.62a61,61,0,0,0-9.46,18.4c-1.92,6.67-2.17,13.94.18,20.46a7.26,7.26,0,0,0,2,3.27,3,3,0,0,0,3.59.29,4.07,4.07,0,0,0,1.24-2.57c.9-4.72.17-9.59.33-14.4a39.59,39.59,0,0,1,10-25c2.45-2.72,5.41-5.16,9-6.11A13,13,0,0,1,254.6,244c-12.81,5.07-21.78,19.41-19.13,32.92,1.41,7.17,5.69,13.48,10.66,18.84a105.57,105.57,0,0,0,21.53,17.26c5.23,3.29,11.12,6.41,17.25,5.67,7.17-.87,12.66-6.71,19.35-9.42,6.27-2.53,13.52-2.26,19.48-5.45,7.11-3.81,10.95-11.77,13-19.57,2-7.42,2.75-15.37.57-22.73-3.91-13.19-16.31-21.9-28.52-28.22a4.9,4.9,0,0,1-2.52-2.16c-5.29-.08-10.68-.81-16-.13a1.69,1.69,0,0,0-.77.23.62.62,0,0,0-.24.71c.12.24.55.28.64,0-2.72-1-6-1.68-8.82-.6l.37-.54a1.36,1.36,0,0,0-1.3.41" transform="translate(-211.56 -215.1)"/><path class="cls-4" d="M303.61,279.15s9.72-3.92,18.66-2.49" transform="translate(-211.56 -215.1)"/><path class="cls-4" d="M259.17,265.22s8.15-5,14.46,3.68" transform="translate(-211.56 -215.1)"/><path class="cls-3" d="M319.8,239.85s19.3-19.06,34-4.86c0,0,16.3,12.7,16.56,42.76,0,0,.79,24.54-19.45,25.86,0,0-10-2.37,3.68-28.66,0,0,12.36-34.44-14.46-40.49,0,0-5.33-2.88-16.86,8.42Z" transform="translate(-211.56 -215.1)"/><path class="cls-5" d="M271.53,281.78s2.37-2.54,2.1-4l-.26-1.49s0,11.83,8.41,7.36" transform="translate(-211.56 -215.1)"/><path class="cls-6" d="M259.17,255.36s1.84-18.53,11.31-14.59" transform="translate(-211.56 -215.1)"/><path class="cls-1" d="M254.7,303.61a9,9,0,0,1-5.75-1.85L242.61,300c-8.94-3.87,7.89-15.37,7.89-15.37l2.36,3.2s-14.61,9.29-3.91,11.87q.72.17,1.59.3Z" transform="translate(-211.56 -215.1)"/><path class="cls-2" d="M292.75,264.34s-5.91-9.72,3.29-20.77c0,0,10.33-10.57,22.21,1.65" transform="translate(-211.56 -215.1)"/><path class="cls-1" d="M331.87,280.45s17.91,6.41,1.47,13.68l-4.5,5.87,5.72-2.47s11.25-4.68,9.19-9.7c0,0-1.54-10.45-8.75-11.17Z" transform="translate(-211.56 -215.1)"/><path class="cls-2" d="M276.31,252.46s-.49-6.1-5.28-7.18c0,0-5.12-1.06-7.83,4.68" transform="translate(-211.56 -215.1)"/><ellipse class="cls-7" cx="57.29" cy="40.26" rx="7.46" ry="8.28"/><circle class="cls-8" cx="58.42" cy="39.26" r="2.55"/><circle class="cls-7" cx="98.03" cy="44.67" r="16.89"/><path class="cls-9" d="M301.62,248.77s-.2,6.35,5.56,4.37c0,0,4.63-5-1.39-6.06C305.79,247.08,304,246,301.62,248.77Z" transform="translate(-211.56 -215.1)"/><path class="cls-1" d="M213.89,281.72s3-2.61,6.19-.52l.44-4.25s-4.54-3.43-8.07.61Z" transform="translate(-211.56 -215.1)"/><path class="cls-10" d="M211.77,273.78s4.5-4.47,8.73-.56l-.11-4.74s-4.56-5-8.62,0Z" transform="translate(-211.56 -215.1)"/><path class="cls-1" d="M220.7,263.17l.9-4.73s-3.84-4.46-8.13,0l-1,3.77S217.59,259.54,220.7,263.17Z" transform="translate(-211.56 -215.1)"/><path class="cls-10" d="M215.23,253.82s4.49-4.46,7.65.54l1.67-3.84s-1.62-4.3-6.82-1.69Z" transform="translate(-211.56 -215.1)"/><path class="cls-1" d="M219.92,245.2s4.42-3.56,6.56,1.88l2.76-3.85s-.73-5-5.87-3Z" transform="translate(-211.56 -215.1)"/><path class="cls-10" d="M226.38,236.57s4.71-2.06,6.11,3.17l3.41-2.55s1.93-6.27-4.39-5.17Z" transform="translate(-211.56 -215.1)"/><path class="cls-1" d="M237.36,229.22s4.71.56,2.63,6.34a7.34,7.34,0,0,1,3.7-.15c2.14.43,0-.43,0-.43s3.28-2.79.32-5.95A18.55,18.55,0,0,0,237.36,229.22Z" transform="translate(-211.56 -215.1)"/><path class="cls-6" d="M316.86,244.52s-9.95-13.21-16.86-7.69" transform="translate(-211.56 -215.1)"/><path class="cls-11" d="M279.35,215.6s-6.16.48-3,4.11c0,0,.66,1.76,3.81,1.74,0,0,3.38.24-5,4.05,0,0-3.66,2.52,5.29,3.23,0,0,1.76-.08-.82,2.55" transform="translate(-211.56 -215.1)"/><path class="cls-10" d="M247.34,236.38s4.46-.89,2.33-5.1l4.29,3.11s1.67,3.59-2.84,4.38Z" transform="translate(-211.56 -215.1)"/><path class="cls-10" d="M347.42,296s8.4-3.18,13.88,4a13,13,0,0,0,5.11-5.87s-2-11.6-17.53-5.8Z" transform="translate(-211.56 -215.1)"/><path class="cls-1" d="M351.93,280.45s13.7-7.17,17.82,4.18a37.25,37.25,0,0,0,.5-10.85s-6.33-7.85-14.76-1.76Z" transform="translate(-211.56 -215.1)"/><path class="cls-10" d="M356.92,265.15s6.26-6.57,12.18-.81l-2-7.89s-7.52-4.22-9.65,1.51Z" transform="translate(-211.56 -215.1)"/><path class="cls-1" d="M356.92,251.83s4-4.13,7.74-1.64l-3-5.67s-4.44-2.45-6.88.68Z" transform="translate(-211.56 -215.1)"/><path class="cls-10" d="M351.93,241s1.77-3.48,5.44-2.4L353.82,235s-3.83-1.41-5.29,3Z" transform="translate(-211.56 -215.1)"/><path class="cls-1" d="M343.63,235.48s-.44-2.91,3.79-4.65l-5.62-1.09-3.16,4.4Z" transform="translate(-211.56 -215.1)"/><path class="cls-10" d="M334.08,231s-1.53,2.36,0,3.77l-3.42,2.11s-2.64-.5-1.82-3.57Z" transform="translate(-211.56 -215.1)"/><path class="cls-12" d="M292.69,231s-4-1.83,2-4.56c0,0,3.22-1.29.8-4,0,0-4.5-4.47,2.9-5" transform="translate(-211.56 -215.1)"/></svg>